/* XPM */
static char *cilogo[] = {
/* columns rows colors chars-per-pixel */
"100 100 77 1 ",
"  c #00F500C7000D",
". c #088706AA008A",
"X c #0B8F09A10182",
"o c #0DB80CB70AB5",
"O c #11DA0E6F0040",
"+ c #10100F0F0D0D",
"@ c #1562110D0000",
"# c #1B1815A50049",
"$ c #1E3C18300000",
"% c #156B151511BC",
"& c #1A1A1A1A1717",
"* c #23341C40008F",
"= c #2BC9233B009A",
"- c #3122274F0000",
"; c #344C2A0A0070",
": c #39DE2E4B0000",
"> c #3C8B307C0080",
", c #244F23792177",
"< c #2CAD2CAD2B2B",
"1 c #348A345132DD",
"2 c #3A3A3A3A3838",
"3 c #4301358A001F",
"4 c #478E39720000",
"5 c #4AD53BD60025",
"6 c #54BB43DF001B",
"7 c #595947470000",
"8 c #5CD54A250000",
"9 c #62874E970000",
"0 c #658251180000",
"q c #6AA655460000",
"w c #6EEF58D90000",
"e c #73A95C850000",
"r c #7CBC63D90000",
"t c #4646464645F0",
"y c #4C4C4C4C4C4C",
"u c #548754875487",
"i c #5C9C5C9C5C9C",
"p c #632363236323",
"a c #69EA69EA69EA",
"s c #7B257B257B25",
"d c #818167670000",
"f c #84E16A6A0000",
"g c #89A36E3B0000",
"h c #8CE270C60000",
"j c #93B576310000",
"k c #979779790000",
"l c #9C2A7D0B0000",
"z c #A37A82E10000",
"x c #A95387310000",
"c c #ACF18A450000",
"v c #B2078E550000",
"b c #B66092120000",
"n c #BC1896730000",
"m c #BF51992B0000",
"M c #C4229CE00000",
"N c #CC91A3A30000",
"B c #D0D0A6A60000",
"V c #D56AAAD50000",
"C c #DA6CAEC00000",
"Z c #DE2EB1DA0000",
"A c #E311B5B50000",
"S c #E7BCB98E0000",
"D c #EC82BD440000",
"F c #F4DEC3F60000",
"G c #F996C7640000",
"H c #FFF8CCC60000",
"J c gray52",
"K c #8A238A238A23",
"L c #909090909090",
"P c #9CF29CF29CF2",
"I c #A650A650A650",
"U c #ACACACACACAC",
"Y c #B388B388B388",
"T c #BD23BD23BD23",
"R c #C484C484C484",
"E c #CCC6CCC6CCC6",
"W c None",
/* pixels */
"WWWWWWWWWWWWWWWWWWWWWWWWWWWWWWWWWWWWWWWWWWWWWWWWWWWWWWWWWWWWWWWWWWWWWWWWWWWWWWWWWWWWWWWWWWWWWWWWWWWW",
"WWWWWWWWWWWWWWWWWWWWWWWWWWWWWWWWWWWWWWWWWWWWWWWWWWWWWWWWWWWWWWWWWWWWWWWWWWWWWWWWWWWWWWWWWWWWWWWWWWWW",
"WWWWWWWWWWWWWWWWWWWWWWWWWWWWWWWWWWWWWWWWWWWWWWWWWWWWWWWWWWWWWWWWWWWWWWWWWWWWWWWWWWWWWWWWWWWWWWWWWWWW",
"WWWWWWWWWWWWWWWWWWWWWWWWWWWWWWWWWWWWWWWWWWWWWWWWWWWWWWWWWWWWWWWWWWWWWWWWWWWWWWWWWWWWWWWWWWWWWWWWWWWW",
"WWWWWWWWWWWWWWWWWWWWWWWWWWWWWWWWWWWWWWWWWWWWWWWWWWWWWWWWWWWWWWWWWWWWWWWWWWWWWWWWWWWWWWWWWWWWWWWWWWWW",
"WWWWWWWWWWWWWWWWWWWWWWWWWWWWWWWWWWWWWWWWWWWWWWWWWWWWWWWWWWWWWWWWWWWWWWWWWWWWWWWWWWWWWWWWWWWWWWWWWWWW",
"WWWWWWWWWWWWWWWWWWWWW   .                ..  WWWWWWWWWWWWWWWWWWWWWWWWWWWWWWWWWWWWWWWWWWWWWWWWWWWWWWW",
"WWWWWWWWWWWWWWWW .   .=60rjccnnNNNNNMnclfq6>#       WWWWWWWWWWWWWWWWWWWWWWWWWWWWWWWWWWWWWWWWWWWWWWWW",
"WWWWWWWWWWWW    -8hnZHHHHHHHHHHHHHHHHHHHHHHHHGZmj9-.    WWWWWWWWWWWWWWWWWWWWWWWWWWWWWWWWWWWWWWWWWWWW",
"WWWWWWWWW   @qcDHHHHHHHHHHHHHHHHHHHHHHHHHHHHHHHHHHHGNj6@   WWWWWWWWWWWWWWWWWWWWWWWWWWWWWWWWWWWWWWWWW",
"WWWWWWW  XwMHHHHHHHHHHHHHHHHHHHHHHHHHHHHHHHHHHHHHHHHHHHHVd=   WWWWWWWWWWWWWWWWWWWWWWWWWWWWWWWWWWWWWW",
"WWWWW  @jFHHHHHHHHHHHHHHHHHHHHHHHHHHHHHHHHHHHHHHHHHHHHHHHHHZh*  WWWWWWWWWWWWWWWWWWWWWWWWWWWWWWWWWWWW",
"WWWW. rFHHHHHHHHHHHHHHHHHHHHHHHHHHHHHHHHHHHHHHHHHHHHHHHHHHHHHHb3   WWWWWWWWWWWWWWWWWWWWWWWWWWWWWWWWW",
"WWW.XnHHHHHHHHHHHHHHHHHHHHHHHHHHHHHHHHHHHHHHHHHHHHHHHHHHHHHHHHHHC0.  WWWWWWWWWWWWWWWWWWWWWWWWWWWWWWW",
"WW  mHHHHHHHHHHHHHHHHHHHHHHHHHHHHHHHHHHHHHHHHHHHHHHHHHHHHHHHHHHHHHZ9 .WWWWWWWWWWWWWWWWWWWWWWWWWWWWWW",
"WW wHHHHHHHHHHHHHHHHHHHHHHHHHHHHHHHHHHHHHHHHHHHHHHHHHHHHHHHHHHHHHHHHC6 .WWWWWWWWWWWWWWWWWWWWWWWWWWWW",
"W XDHHHHHHHHHHHHHHHHHHHHHHHHHHHHHHHHHHHHHHHHHHHHHHHHHHHHHHHHHHHHHHHHHHN-  WWWWWWWWWWWWWWWWWWWWWWWWWW",
"W.qHHHHHHHHHHHHHHHHHHHHHHHHHHHHHHHHHHHHHHHHHHHHHHHHHHHHHHHHHHHHHHHHHHHHHk@.WWWWWWWWWWWWWWWWWWWWWWWWW",
"W nHHHHHHHHHHHHHHHHHHHHHHHHHHHHHHHHHHHHHHHHHHHHHHHHHHHHHHHHHHHHHHHHHHHHHHDq .WWWWWWWWWWWWWWWWWWWWWWW",
"W AHHHHHHHHHHHHHHHHHHHHHHHHHHHHHHHHHHHHHHHHHHHHHHHHHHHHHHHHHHHHHHHHHHHHHHHHn# WWWWWWWWWWWWWWWWWWWWWW",
"W NHHHHHHHHHHHHHHHHHHHHHHHHHHHHHGZMnnVDHHHHHHHHHHHHHHHHHHHHHHHHHHHHHHHHHHHHHD8  WWWWWWWWWWWWWWWWWWWW",
"W qHHHHHHHHHHHHHHHHHHHHHHHHHHMe-       .=6rnFHHHHHHHHHHHHHHHHHHHHHHHHHHHHHHHHHcX WWWWWWWWWWWWWWWWWWW",
"W  rGHHHHHHHHHHHHHHHHHHHHHFj* .3rzMNNbzh8=.  3gVHHHHHHHHHHHHHHHHHHHHHHHHHHHHHHHZ-  WWWWWWWWWWWWWWWWW",
"WW  $dNHHHHHHHHHHHHHHHHHZe. :vGHHHHHHHHHHHFnr:. -gZHHHHHHHHHHHHHHHHHHHHHHHHHHHHHGq  WWWWWWWWWWWWWWWW",
"WWWW   O3qjvNSHHHHHHHDc5  5VHHHHHHHHHHHHHHHHHHDz4. >lFHHHHHHHHHHHHHHHHHHHHHHHHHHHHz..WWWWWWWWWWWWWWW",
"WWWWWWW  .    .#:333$  .0DHHHHHHHHHHHHHHHHHHHHHHHDl> .7nHHHHHHHHHHHHHHHHHHHHHHHHHHHN@ WWWWWWWWWWWWWW",
"WWWWWWWWWWWWWW       XrGHHHHHHHHHHHHHHHHHHHHHHHHHHHHZr$ $rAHHHHHHHHHHHHHHHHHHHHHHHHHA- WWWWWWWWWWWWW",
"WWWWWWWWWWWWWWWWWW  8FHHHHHHHHHHHHHHHHHHHHHHHHHHHHHHHHGn7. 7MHHHHHHHHHHHHHHHHHHHHHHHHF5 WWWWWWWWWWWW",
"WWWWWWWWWWWWWWWWW..zHHHHHHHHHHHHHHHHHHHHHHHHHHHHHHHHHHHHHDd# -zGHHHHHHHHHHHHHHHHHHHHHHH9 WWWWWWWWWWW",
"WWWWWWWWWWWWWWWW ONHHHHHHHHHHHHHHHHHHHHHHHHHHHHHHHHHHHHHHHHHb3 @gFHHHHHHHHHHHHHHHHHHHHHHe  WWWWWWWWW",
"WWWWWWWWWWWWWWW $CHHHHHHHHHHHHHHHHHHHHHHHHHHHHHHHHHHHHHHHHHHHHM> *zHHHHHHHHHHHHHHHHHHHHHHq  WWWWWWWW",
"WWWWWWWWWWWWWW.@CHHHHHHHHHHHHHHHHHHHHHHHHHHHHHHHHHHHHHHHHHHHHHHHm: -NHHHHHHHHHHHHHHHHHHHHHw WWWWWWWW",
"WWWWWWWWWWWWW.XBHHHHHHHHHHHGne4=**=6rNHHHHHHHHHHHHHHHHHHHHHHHHHHHHb* rFHHHHHHHHHHHHHHHHHHHH6 WWWWWWW",
"WWWWWWWWWWWW  cHHHHHHHHHHCwo o<tuut,o =kGHHHHHHHHHHHHHHHHHHHHHHHHHHFr -DHHHHHHHHHHHHHHHHHHHG: WWWWWW",
"WWWWWWWWWWWW eHHHHHHHHHD0 .uPREEEEEERJ1 :SHHHHHHHHHHvqHHHHHHHHHHHHHHHM.*AHHHHHHHHHHHHHHHHHHHD* WWWWW",
"WWWWWWWWWWW -GHHHHHHHHvO.pREEEEEEEEEEEEK+=SHHHHHHHHHh FHHHHHHHHHHHHHHHB.:HHHHHHHHHHHHHHHHHHHHV. WWWW",
"WWWWWWWWWW .NHHHHHHHHd <YEEEEEEEEEEEEEEEIo>HHHHHHHHHc VHHHHHHHHHHHHHHHHx mHHHHHHHHHHHHHHHHHHHHk WWWW",
"WWWWWWWWWW rHHHHHHHHg uEEEEEEEEEEEEEEEEEEK zHHHHHHHHN bHHHHHHHHHHHHHHHHD kHHHHHHHHHHHHHHHHHHHHH6 WWW",
"WWWWWWWWW $FHHHHHHHz iEEEEEEEEEEEEEEEEEEEE2#FHHHHHHHS lHHHHHHHHHHHHHHHHh NHHHHHHHHHHHHHHHHHHHHHS. WW",
"WWWWWWWWW zHHHHHHHSX2EEEEEEEEEEEEEEEEEEEEEP lHHHHHHHH fHHHHHHHHHHHHHHHM.6HHHHHHHHHHHHHHHHHHHHHHHr WW",
"WWWWWWWW.=GHHHHHHH7oTEEEEEEEEEEEEEEEEEEEEEE,4HHHHHHHH@eHHHHHHHHHHHHHHD@=DHHHHHHHHHHHHHHHHHHHHHHHFX W",
"WWWWWWWW cHHHHHHHM aEEEEEEEEEEEEEEEEEEEEEEEp.FHHHHHHH*8HHHHHHHHHHHHHHq.ZHHHHHHHHHHHHHHHHHHHHHHHHHe W",
"WWWWWWW *HHHHHHHH6%REEEEEEEEEEEEEEEEEEEEEEEP MHHHHHHH;6HHHHHHHHHHHHHGXqHHHHHHHHHHHHHHHHHHHHHHHHHHM W",
"WWWWWWW hHHHHHHHS aEEEEEEEEEEEEEEEEEEEEEEEEY zHHHHHHH>4HHHHHHHHHHHHHV cHHHHHHHHHHHHHHHHHHHHHHHHHHF W",
"WWWWWW .DHHHHHHHg YEEEEEEEEEEEEEEEEEEEEEEEEE dHHHHHHH4>HHHHHHHHHHHHHS kHHHHHHHHHHHHHHHHHHHHHHHHHHF W",
"WWWWWW 7HHHHHHHH>1EEEEEEEEEEEEEEEEEEEEEEEEEEorHHHHHHH5>HHHHHHHHHHHHHH:*DHHHHHHHHHHHHHHHHHHHHHHHHHm W",
"WWWWWW nHHHHHHHG.pEEEEEEEEEEEEEEEEEEEEEEEEER fHHHHHHH5>HHHHHHHHHHHHHHN.*MHHHHHHHHHHHHHHHHHHHHHHHF: W",
"WWWWW @HHHHHHHHM LEEEEEEEEEEEEEEEEEEEEEEEEER jHHHHHHH5:HHHHHHHHHHHHHHHN$ 3xDHHHHHHHHHHHHHHHHHHFc* WW",
"WWWWW qHHHHHHHHj TEEEEEEEEEEEEEEEEEEEEEEEEEP nHHHHHHH4>HHHHHHHHHHHHHHHHFh$  :0gxMZZZZZZVmxjr9:. .WWW",
"WWWWW cHHHHHHHHroEEEEEEEEEEEEEEEEEEEEEEEEEEa.FHHHHHHH:5HHHHHHHHHHHHHHHHHHGMr>#              .  WWWWW",
"WWWWW DHHHHHHHHq%EEEEEEEEEEEEEEEEEEEEEEEEEE1;HHHHHHHH=7HHHHHHHHHHHHHHHHHHHHHHHGZm6 WWWWWWWWWWWWWWWWW",
"WWWW.:HHHHHHHHHq%EEEEEEEEEEEEEEEEEEEEEEEEEU gHHHHHHHH*9HHHHHHHHHHHHHHHHHHHHHHHHHHZ WWWWWWWWWWWWWWWWW",
"WWWW rHHHHHHHHHr.EEEEEEEEEEEEEEEEEEEEEEEEEt.DHHHHHHHHOwHHHHHHHHHHHHHHHHHHHHHHHHHHH: WWWWWWWWWWWWWWWW",
"WWWW cHHHHHHHHHz YEEEEEEEEEEEEEEEEEEEEEEEL dHHHHHHHHF hHHHHHHHHHHHHHHHHHHHHHHHHHHHd WWWWWWWWWWWWWWWW",
"WWWW CHHHHHHHHHZ sEEEEEEEEEEEEEEEEEEEEEEY+;GHHHHHHHHV cHHHHHHHHHHHHHHHHHHHHHHHHHHHm WWWWWWWWWWWWWWWW",
"WWW .HHHHHHHHHHH=1EEEEEEEEEEEEEEEEEEEEER<XZHHHHHHHHHb NHHHHHHHHHHHHHHHHHHHHHHHHHHHF WWWWWWWWWWWWWWWW",
"WWW =HHHHHHHHHHHj IEEEEEEEEEEEEEEEEEEER1.bHHHHHHHHHHk DHHHHHHHHHHHHHHHHHHHHHHHHHHHH= WWWWWWWWWWWWWWW",
"WWW 4HHHHHHHHHHHF$,TEEEEEEEEEEEEEEEEET1.cHHHHHHHHHHHe.HHHHHHHHHHHHHHHHHHHHHHHHHHHHH6 WWWWWWWWWWWWWWW",
"WWW.6HHHHHHHHHHHHn.2REEEEEEEEEEEEEEEP&XvHHHHHHHHHHHH:4HHHHHHHHHHHHHHHHHHHHHHHHHHHHHe.WWWWWWWWWWWWWWW",
"WWW.0HHHHHHHHHHHHHz ,IEEEEEEEEEEEERi ;CHHHHHHHHHHHHG.rHHHHHHHHHHHHHHHHHHHHHHHHHHHHHg WWWWWWWWWWWWWWW",
"WWW *FHHHHHHHHHHHHHm# yIEEEEEEEEYiooeGHHHHHHHHHHHHHN vHHHHHHHHHHHHHHHHHHHHHHHHHHHHHj WWWWWWWWWWWWWWW",
"WWWW 9HHHHHHHHHHHHHHDrX ,isKKsu,  8AHHHHHHHHHHHHHHHk DHHHHHHHHHHHHHHHHHHHHHHHHHHHHHk WWWWWWWWWWWWWWW",
"WWWWW 6FHHHHHHHHHHHHHHFl5.    X3gZHHHHHHHHHHHHHHHHH6*HHHHHHHHHHHHHHHHHHHHHHHHHHHHHH9 WWWWWWWWWWWWWWW",
"WWWWWW =MHHHHHHHHHHHHHHHHHSZZDHHHHHHHHHHHHHHHHHHHHD.rHHHHHHHHHHHHHHHHHHHHHHHHHHHHHn     WWWWWWWWWWWW",
"WWWWWWW. 0SHHHHHHHHHHHHHHHHHHHHHHHHHHHHHHHHHHHHHHHk VHHHHHHHHHHHHHHHHHHHHHHHHHHHHc. WW    WWWWWWWWWW",
"WWWWWWWW  .rDHHHHHHHHHHHHHHHHHHHHHHHHHHHHHHHHHHHHH4-HHHHHHHHHHHHHHHHHHHHHHHHHHHFw  WWWWWW   WWWWWWWW",
"WWWWWWWWWW  .qVHHHHHHHHHHHHHHHHHHHHHHHHHHHHHHHHHHZ hHHHHHHHHHHHHHHHHHHHHHHHHHHz$  WWWWWWWWW  WWWWWWW",
"WWWWWWWWWWWW   4xFHHHHHHHHHHHHHHHHHHHHHHHHHHHHHHHq.DHHHHHHHHHHHHHHHHHHHHHHHFz*  W     WWWWWW   WWWWW",
"WWWWWWWWWWWWWWW. .9MHHHHHHHHHHHHHHHHHHHHHHHHHHHHD.wHHHHHHHHHHHHHHHHHHHHHHCeO .WW   W    WWWWWW  WWWW",
"WWWWWWWWWWWWWWWWW   $rVHHHHHHHHHHHHHHHHHHHHHHHHHg ZHHHHHHHHHHHHHHHHHHHAh= . WWW  WWWWWW  WWWWWW  WWW",
"WWWWWWWWWWWWWWWWWWWW   *enGHHHHHHHHHHHHHHHHHHHHG#4HHHHHHHHHHHHHHHHHSj:  .WWWWWW WWWWWWWW  WWWWW  WWW",
"WWWWWWWWWWWWWWWWWWWWWWW   .6lSHHHHHHHHHHHHHHHHHk NHHHHHHHHHHHHHGnr=  .WWWWWWWWW WWWWWWWWW WWWWWW WWW",
"WWWWWWWWWWWWWWWWWWWWWWWWWW    =wcDHHHHHHHHHHHHG$>HHHHHHHHHHHNj5.   WWWWWWWWWWWW  WWWWWWWW  WWWWW WWW",
"WWWWWWWWWWWWWWWWWWWWWWWWWWWWWW    =wcAHHHHHHHHl nHHHHHHDbr3.  . WWWWWWWW     WWW  WWWWWWW  WWWW  WWW",
"WWWWWWWWWWWWWWWWWWWWWWWWWWWWWWWWWW    @4rcVFHH*;HDNke4$     WWWWWWWWWWW  WW    WW  WWWWWW  WWW  WWWW",
"WWWWWWWWWWWWWWWWWWWWWWWWWWWWWWWWWWWWWW      .##.    .  WWWWWWWWWWWWWWW  WWWWWW  WW   WWWW WWW   WWWW",
"WWWWWWWWWWWWWWWWWWWWWWWWWWWWWWWWWWWWWWWWWWWW    WWWWWWWWWWWWWWWWWWWWWW  WWWWWWW  WWW          WWWWWW",
"WWWWWWWWWWWWWWWWWWWWWWWWWWWWWWWWWWWWWWWWWWWWWWWWWWWWWWWWWWWWWWWWWWWWWW  WWWWWWWW   WWW      WWWWWWWW",
"WWWWWWWWWWWWWWWWWWWWWWWWWWWWWWWWWWWWWWWWWWWWWWWWWWWWWWWWWWWWWWWWWWWWWWW WWWWWWWWW  WWW  WWWWWWWWWWWW",
"WWWWWWWWWWWWWWWWWWWWWWWWWWWWWWWWWWWWWWWWWWWWWWWWWWWWWWWWWWWWWWWWWWWWWWW  WWWWWWWWW     WWWWWWWWWWWWW",
"WWWWWWWWWWWWWWWWWWWWWWWWWWWWWWWWWWWWWWWWWWWWWWWWWWWWWWWWWWWWWWWWWWWWWWWW  WWWWWWWW   WWWWWWWWWWWWWWW",
"WWWWWWWWWWWWWWWWWWWWWWWWWWWWWWWWWWWWWWWWWWWWWWWWWWWWWWWWWWWWWWWWWWWWWWWWW  WWWW      WWWWWWWWWWWWWWW",
"WWWWWWWWWWWWWWWWWWWWWWWWWWWWWWWWWWWWWWWWWWWWWWWWWWWWWWWWWWWWWWWWWWWWWWWWWW       WW  WWWWWWWWWWWWWWW",
"WWWWWWWWWWWWWWWWWWWWWWWWWWWWWWWWWWWWWWWWWWWWWWWWWWWWWWWWWWWWWWWWWWWWWWWWWWWWWWWWWWW WWWWWWWWWWWWWWWW",
"WWWWWWWWWWWWWWWWWWWWWWWWWWWWWWWWWWWWWWWWWWWWWWWWWWWWWWWWWWWWWWWWWWWWWWWWWWWWWWWWWW  WWWWWWWWWWWWWWWW",
"WWWWWWWWWWWWWWWWWWWWWWWWWWWWWWWWWWWWWWWWWWWWWWWWWWWWWWWWWWWWWWWWWWWWWWWWWWWWWWWW   WWWWWWWWWWWWWWWWW",
"WWWWWWWWWWWWWWWWWWWWWWWWWWWWWWWWWWWWWWWWWWWWWWWWWWWWWWWWWWWWWWWWWWWWWWWWWWWW     WWWWWWWWWWWWWWWWWWW",
"WWWWWWWWWWWWWWWWWWWWWWWWWWWWWWWWWWWWWWWWWWWWWWWWWWWWWWWWWWW                   WWWWWWWWWWWWWWWWWWWWWW",
"WWWWWWWWWWWWWWWWWWWWWWWWWWWWWWWWWWWWWWWWWWWWWWWWWWWWWWWWWWWWWWWWWWWWWWWWWWWWWWWWWWWWWWWWWWWWWWWWWWWW",
"WWWWWWWWWWWWWWWWWWWWWWWWWWWWWWWWWWWWWWWWWWWWWWWWWWWWWWWWWWWWWWWWWWWWWWWWWWWWWWWWWWWWWWWWWWWWWWWWWWWW",
"WWWWWWWWWWWWWWWWWWWWWWWWWWWWWWWWWWWWWWWWWWWWWWWWWWWWWWWWWWWWWWWWWWWWWWWWWWWWWWWWWWWWWWWWWWWWWWWWWWWW",
"WWWWWWWWWWWWWWWWWWWWWWWWWWWWWWWWWWWWWWWWWWWWWWWWWWWWWWWWWWWWWWWWWWWWWWWWWWWWWWWWWWWWWWWWWWWWWWWWWWWW",
"WWWWWWWWWWWWWWWWWWWWWWWWWWWWWWWWWWWWWWWWWWWWWWWWWWWWWWWWWWWWWWWWWWWWWWWWWWWWWWWWWWWWWWWWWWWWWWWWWWWW",
"WWWWWWWWWWWWWWWWWWWWWWWWWWWWWWWWWWWWWWWWWWWWWWWWWWWWWWWWWWWWWWWWWWWWWWWWWWWWWWWWWWWWWWWWWWWWWWWWWWWW",
"WWWWWWWWWWWWWWWWWWWWWWWWWWWWWWWWWWWWWWWWWWWWWWWWWWWWWWWWWWWWWWWWWWWWWWWWWWWWWWWWWWWWWWWWWWWWWWWWWWWW",
"WWWWWWWWWWWWWWWWWWWWWWWWWWWWWWWWWWWWWWWWWWWWWWWWWWWWWWWWWWWWWWWWWWWWWWWWWWWWWWWWWWWWWWWWWWWWWWWWWWWW",
"WWWWWWWWWWWWWWWWWWWWWWWWWWWWWWWWWWWWWWWWWWWWWWWWWWWWWWWWWWWWWWWWWWWWWWWWWWWWWWWWWWWWWWWWWWWWWWWWWWWW",
"WWWWWWWWWWWWWWWWWWWWWWWWWWWWWWWWWWWWWWWWWWWWWWWWWWWWWWWWWWWWWWWWWWWWWWWWWWWWWWWWWWWWWWWWWWWWWWWWWWWW",
"WWWWWWWWWWWWWWWWWWWWWWWWWWWWWWWWWWWWWWWWWWWWWWWWWWWWWWWWWWWWWWWWWWWWWWWWWWWWWWWWWWWWWWWWWWWWWWWWWWWW",
"WWWWWWWWWWWWWWWWWWWWWWWWWWWWWWWWWWWWWWWWWWWWWWWWWWWWWWWWWWWWWWWWWWWWWWWWWWWWWWWWWWWWWWWWWWWWWWWWWWWW"
};
